<svg width="231" height="228" viewBox="0 0 231 228" fill="none" xmlns="http://www.w3.org/2000/svg">
<path fill-rule="evenodd" clip-rule="evenodd" d="M217.196 166.161C218.533 163.615 219.775 161.012 220.919 158.358L100.161 0.942817C97.2555 1.31395 94.3837 1.79233 91.5501 2.37381L217.196 166.161ZM90.5017 2.59403C88.4358 3.03798 86.3906 3.53684 84.3677 4.08897L213.584 172.531C214.671 170.751 215.709 168.94 216.698 167.099L90.5017 2.59403ZM224.525 148.815C223.58 151.708 222.52 154.55 221.353 157.336L101.274 0.806168C104.293 0.450119 107.347 0.209703 110.433 0.0895236L224.525 148.815ZM75.576 6.87166C78.1309 5.94876 80.7282 5.11292 83.3642 4.36775L213.042 173.41C211.608 175.712 210.093 177.959 208.502 180.148L75.576 6.87166ZM74.6256 7.21968L207.906 180.959C206.526 182.823 205.09 184.644 203.6 186.42L68.1489 9.8505C70.2745 8.91086 72.4342 8.03315 74.6256 7.21968ZM197.681 192.947C199.506 191.083 201.268 189.158 202.962 187.174L67.2425 10.2559C64.8506 11.338 62.5028 12.4988 60.2023 13.735L197.681 192.947ZM196.996 193.641C195.63 195.013 194.228 196.351 192.793 197.653L54.3086 17.1299C55.9592 16.1131 57.6378 15.1365 59.3428 14.2015L196.996 193.641ZM186.153 203.24C188.182 201.659 190.157 200.012 192.073 198.301L53.4845 17.6424C51.3016 19.0126 49.1687 20.4534 47.0888 21.9618L186.153 203.24ZM185.388 203.83C183.35 205.39 181.258 206.884 179.115 208.309L40.2667 27.3116C42.225 25.6535 44.2402 24.0592 46.3091 22.5322L185.388 203.83ZM171.677 212.856C173.935 211.59 176.146 210.251 178.306 208.841L39.5312 27.9397C37.576 29.6237 35.6788 31.372 33.8431 33.1812L171.677 212.856ZM170.823 213.33C169.112 214.271 167.373 215.169 165.609 216.024L29.1277 38.1125C30.4329 36.6639 31.7749 35.2485 33.1524 33.8677L170.823 213.33ZM157.43 219.606C159.903 218.635 162.334 217.583 164.719 216.451L28.4728 38.8456C26.7259 40.8182 25.0469 42.851 23.4392 44.9405L157.43 219.606ZM156.491 219.969C154.287 220.811 152.051 221.589 149.783 222.298L18.7549 51.4947C20.0553 49.5323 21.4153 47.612 22.8324 45.7364L156.491 219.969ZM140.725 224.733C143.454 224.117 146.147 223.406 148.799 222.602L18.1937 52.35C16.6908 54.6629 15.2704 57.0332 13.9364 59.4567L140.725 224.733ZM139.684 224.963C137.582 225.417 135.458 225.814 133.315 226.152L10.5505 66.1208C11.4576 64.1786 12.4185 62.2661 13.4311 60.3849L139.684 224.963ZM123.265 227.294C126.286 227.083 129.274 226.756 132.226 226.319L10.0935 67.1118C8.86455 69.811 7.73892 72.566 6.72156 75.3721L123.265 227.294ZM122.106 227.369C119.768 227.509 117.412 227.58 115.039 227.58C114.203 227.58 113.369 227.572 112.538 227.554L3.57851 85.5189C4.37284 82.4457 5.29365 79.4226 6.33514 76.4552L122.106 227.369ZM100.987 226.74C104.38 227.149 107.818 227.411 111.295 227.521L3.27695 86.7126C2.46344 90.0093 1.79511 93.3622 1.27907 96.7644L100.987 226.74ZM99.6391 226.57C96.815 226.196 94.0232 225.721 91.2678 225.148L0.233595 106.48C0.414556 103.657 0.699584 100.862 1.08493 98.0982L99.6391 226.57ZM77.4384 221.363C81.4657 222.74 85.5945 223.902 89.8106 224.836L0.148608 107.956C0.0499331 109.888 0 111.833 0 113.79C0 116.107 0.0699714 118.407 0.207938 120.689L77.4384 221.363ZM75.7733 220.78C71.4277 219.219 67.2041 217.407 63.1206 215.36L2.17221 135.91C1.2944 131.503 0.673847 127.004 0.326669 122.43L75.7733 220.78ZM41.2473 201.09C47.3617 206.152 54.016 210.597 61.1122 214.329L2.62968 138.093C4.34419 145.889 6.86634 153.385 10.1051 160.494L41.2473 201.09ZM37.6429 197.978L12.1534 164.751C18.5386 177.339 27.2156 188.593 37.6429 197.978ZM229.19 127.989C229.667 124.197 229.956 120.347 230.046 116.449L143.385 3.48058C139.641 2.54197 135.823 1.78501 131.942 1.21974L229.19 127.989ZM130.579 1.02941C127.978 0.682085 125.351 0.420698 122.698 0.24823L227.666 137.08C228.202 134.531 228.651 131.951 229.012 129.343L130.579 1.02941ZM230.077 113.79C230.077 114.159 230.075 114.527 230.072 114.895L144.903 3.87196C148.743 4.89017 152.503 6.10002 156.174 7.4905L229.584 103.186C229.91 106.677 230.077 110.214 230.077 113.79ZM224.884 147.696C225.852 144.624 226.692 141.496 227.398 138.318L121.423 0.172255C119.309 0.0579173 117.181 0 115.039 0C113.895 0 112.755 0.0165078 111.62 0.0492956L224.884 147.696ZM197.48 34.4281C204.065 41.1202 209.825 48.6112 214.596 56.7402L197.48 34.4281ZM192.847 29.9758C187.552 25.1635 181.799 20.8359 175.661 17.064L225.56 82.1096C223.547 75.228 220.896 68.6148 217.673 62.337L192.847 29.9758ZM229.398 101.356C228.77 95.6357 227.713 90.0423 226.259 84.6082L173.409 15.7151C168.467 12.8309 163.288 10.3018 157.907 8.16329L229.398 101.356Z" fill="url(#paint0_linear_10_119)"/>
<defs>
<linearGradient id="paint0_linear_10_119" x1="29.4444" y1="36.5754" x2="217.858" y2="162.417" gradientUnits="userSpaceOnUse">
<stop offset="0.0833333" stop-color="#5200FF" stop-opacity="0.45"/>
<stop offset="0.501003" stop-color="#C88065" stop-opacity="0.34"/>
<stop offset="1" stop-color="#4F4F4F" stop-opacity="0.73"/>
</linearGradient>
</defs>
</svg>
